# xmcd
#
# Track frame offsets: 
#        150
#        36852
#        56880
#        75856
#        91036
#        103520
#        116844
#        130164
#        142683
#        161572
#        183269
#        199724
#        208550
#
# Disc length: 3096 seconds
#
# Revision: 0
# Processed by: cddbd v1.5.2PL0 Copyright (c) Steve Scherf et al.
# Submitted via: ExactAudioCopy v1.0b4
#
DISCID=a20c160d
DTITLE=Leslie West - Dodgin' The Dirt
DYEAR=1993
DGENRE=Blues Rock
TTITLE0=Red House
TTITLE1=Whiskey Train
TTITLE2=Daddy Are You Angry
TTITLE3=New York State Of Mind
TTITLE4=Sambuca
TTITLE5=Juke Joint Jumpin'
TTITLE6=Easy Street
TTITLE7=One Last Lick
TTITLE8=Cross Cust Saw
TTITLE9=Hang Me Out To Dry
TTITLE10=Wasted Years
TTITLE11=My Friend Sam
TTITLE12=Thunderbird
EXTD=
EXTT0=
EXTT1=
EXTT2=
EXTT3=
EXTT4=
EXTT5=
EXTT6=
EXTT7=
EXTT8=
EXTT9=
EXTT10=
EXTT11=
EXTT12=
PLAYORDER=
